<svg width="34" height="34" viewBox="0 0 34 34" fill="none" xmlns="http://www.w3.org/2000/svg">
<g clip-path="url(#clip0_969203_18)">
<path d="M17 21H22.5C23.4283 21 24.3185 20.6313 24.9749 19.9749C25.6313 19.3185 26 18.4283 26 17.5C26 16.5717 25.6313 15.6815 24.9749 15.0251C24.3185 14.3687 23.4283 14 22.5 14H11.5C10.5717 14 9.6815 13.6313 9.02513 12.9749C8.36875 12.3185 8 11.4283 8 10.5C8 9.57174 8.36875 8.6815 9.02513 8.02513C9.6815 7.36875 10.5717 7 11.5 7H17" stroke="black" stroke-width="2" stroke-linecap="round" stroke-linejoin="round"/>
<path d="M11 24C12.6569 24 14 22.6569 14 21C14 19.3431 12.6569 18 11 18C9.34315 18 8 19.3431 8 21C8 22.6569 9.34315 24 11 24Z" fill="#546DE9" fill-opacity="0.8" stroke="black" stroke-width="1.5" stroke-linecap="round" stroke-linejoin="round"/>
<path d="M23 10C24.6569 10 26 8.65685 26 7C26 5.34315 24.6569 4 23 4C21.3431 4 20 5.34315 20 7C20 8.65685 21.3431 10 23 10Z" fill="#E6CB37" fill-opacity="0.8" stroke="black" stroke-width="1.5" stroke-linecap="round" stroke-linejoin="round"/>
<path d="M5.866 31.084C5.55 31.084 5.27 31.028 5.026 30.916C4.782 30.804 4.59 30.64 4.45 30.424C4.314 30.204 4.246 29.938 4.246 29.626V29.476H4.888V29.626C4.888 29.922 4.976 30.144 5.152 30.292C5.332 30.44 5.57 30.514 5.866 30.514C6.166 30.514 6.392 30.452 6.544 30.328C6.696 30.2 6.772 30.036 6.772 29.836C6.772 29.704 6.736 29.596 6.664 29.512C6.592 29.428 6.49 29.362 6.358 29.314C6.226 29.262 6.068 29.214 5.884 29.17L5.662 29.116C5.394 29.052 5.16 28.974 4.96 28.882C4.764 28.786 4.612 28.66 4.504 28.504C4.396 28.348 4.342 28.148 4.342 27.904C4.342 27.656 4.402 27.444 4.522 27.268C4.646 27.092 4.816 26.956 5.032 26.86C5.248 26.764 5.502 26.716 5.794 26.716C6.086 26.716 6.346 26.766 6.574 26.866C6.806 26.966 6.988 27.114 7.12 27.31C7.252 27.506 7.318 27.752 7.318 28.048V28.264H6.676V28.048C6.676 27.868 6.638 27.722 6.562 27.61C6.49 27.498 6.388 27.416 6.256 27.364C6.124 27.312 5.97 27.286 5.794 27.286C5.538 27.286 5.338 27.34 5.194 27.448C5.054 27.552 4.984 27.698 4.984 27.886C4.984 28.014 5.014 28.12 5.074 28.204C5.138 28.284 5.23 28.35 5.35 28.402C5.47 28.454 5.62 28.5 5.8 28.54L6.022 28.594C6.294 28.654 6.534 28.732 6.742 28.828C6.95 28.92 7.114 29.046 7.234 29.206C7.354 29.366 7.414 29.572 7.414 29.824C7.414 30.076 7.35 30.296 7.222 30.484C7.098 30.672 6.92 30.82 6.688 30.928C6.456 31.032 6.182 31.084 5.866 31.084ZM8.11225 31V26.8H8.73025V29.194H8.82625L9.99025 28.042H10.8123L9.31825 29.476L10.8603 31H10.0443L8.82625 29.77H8.73025V31H8.11225ZM12.603 31.084C12.303 31.084 12.041 31.022 11.817 30.898C11.593 30.77 11.417 30.592 11.289 30.364C11.165 30.132 11.103 29.864 11.103 29.56V29.488C11.103 29.18 11.165 28.912 11.289 28.684C11.413 28.452 11.585 28.274 11.805 28.15C12.029 28.022 12.287 27.958 12.579 27.958C12.863 27.958 13.111 28.022 13.323 28.15C13.539 28.274 13.707 28.448 13.827 28.672C13.947 28.896 14.007 29.158 14.007 29.458V29.692H11.733C11.741 29.952 11.827 30.16 11.991 30.316C12.159 30.468 12.367 30.544 12.615 30.544C12.847 30.544 13.021 30.492 13.137 30.388C13.257 30.284 13.349 30.164 13.413 30.028L13.923 30.292C13.867 30.404 13.785 30.522 13.677 30.646C13.573 30.77 13.435 30.874 13.263 30.958C13.091 31.042 12.871 31.084 12.603 31.084ZM11.739 29.218H13.377C13.361 28.994 13.281 28.82 13.137 28.696C12.993 28.568 12.805 28.504 12.573 28.504C12.341 28.504 12.151 28.568 12.003 28.696C11.859 28.82 11.771 28.994 11.739 29.218ZM15.7496 31C15.5696 31 15.4256 30.946 15.3176 30.838C15.2136 30.73 15.1616 30.586 15.1616 30.406V28.564H14.3456V28.042H15.1616V27.064H15.7796V28.042H16.6616V28.564H15.7796V30.298C15.7796 30.418 15.8356 30.478 15.9476 30.478H16.5656V31H15.7496ZM18.6562 31.084C18.3722 31.084 18.1142 31.024 17.8822 30.904C17.6542 30.784 17.4722 30.61 17.3362 30.382C17.2042 30.154 17.1382 29.88 17.1382 29.56V29.482C17.1382 29.162 17.2042 28.89 17.3362 28.666C17.4722 28.438 17.6542 28.264 17.8822 28.144C18.1142 28.02 18.3722 27.958 18.6562 27.958C18.9402 27.958 19.1822 28.01 19.3822 28.114C19.5822 28.218 19.7422 28.356 19.8622 28.528C19.9862 28.7 20.0662 28.89 20.1022 29.098L19.5022 29.224C19.4822 29.092 19.4402 28.972 19.3762 28.864C19.3122 28.756 19.2222 28.67 19.1062 28.606C18.9902 28.542 18.8442 28.51 18.6682 28.51C18.4962 28.51 18.3402 28.55 18.2002 28.63C18.0642 28.706 17.9562 28.818 17.8762 28.966C17.7962 29.11 17.7562 29.286 17.7562 29.494V29.548C17.7562 29.756 17.7962 29.934 17.8762 30.082C17.9562 30.23 18.0642 30.342 18.2002 30.418C18.3402 30.494 18.4962 30.532 18.6682 30.532C18.9282 30.532 19.1262 30.466 19.2622 30.334C19.3982 30.198 19.4842 30.026 19.5202 29.818L20.1202 29.956C20.0722 30.16 19.9862 30.348 19.8622 30.52C19.7422 30.692 19.5822 30.83 19.3822 30.934C19.1822 31.034 18.9402 31.084 18.6562 31.084ZM20.833 31V26.8H21.451V28.462H21.547C21.587 28.386 21.643 28.312 21.715 28.24C21.791 28.168 21.889 28.11 22.009 28.066C22.133 28.018 22.289 27.994 22.477 27.994C22.701 27.994 22.899 28.044 23.071 28.144C23.247 28.244 23.385 28.386 23.485 28.57C23.585 28.75 23.635 28.968 23.635 29.224V31H23.017V29.272C23.017 29.016 22.953 28.828 22.825 28.708C22.697 28.584 22.521 28.522 22.297 28.522C22.041 28.522 21.835 28.606 21.679 28.774C21.527 28.942 21.451 29.186 21.451 29.506V31H20.833ZM24.5244 31V26.8H25.1424V31H24.5244ZM26.0595 31V28.042H26.6775V31H26.0595ZM26.3715 27.64C26.2515 27.64 26.1495 27.602 26.0655 27.526C25.9855 27.446 25.9455 27.344 25.9455 27.22C25.9455 27.096 25.9855 26.996 26.0655 26.92C26.1495 26.84 26.2515 26.8 26.3715 26.8C26.4955 26.8 26.5975 26.84 26.6775 26.92C26.7575 26.996 26.7975 27.096 26.7975 27.22C26.7975 27.344 26.7575 27.446 26.6775 27.526C26.5975 27.602 26.4955 27.64 26.3715 27.64ZM28.9507 31.084C28.6507 31.084 28.3887 31.022 28.1647 30.898C27.9407 30.77 27.7647 30.592 27.6367 30.364C27.5127 30.132 27.4507 29.864 27.4507 29.56V29.488C27.4507 29.18 27.5127 28.912 27.6367 28.684C27.7607 28.452 27.9327 28.274 28.1527 28.15C28.3767 28.022 28.6347 27.958 28.9267 27.958C29.2107 27.958 29.4587 28.022 29.6707 28.15C29.8867 28.274 30.0547 28.448 30.1747 28.672C30.2947 28.896 30.3547 29.158 30.3547 29.458V29.692H28.0807C28.0887 29.952 28.1747 30.16 28.3387 30.316C28.5067 30.468 28.7147 30.544 28.9627 30.544C29.1947 30.544 29.3687 30.492 29.4847 30.388C29.6047 30.284 29.6967 30.164 29.7607 30.028L30.2707 30.292C30.2147 30.404 30.1327 30.522 30.0247 30.646C29.9207 30.77 29.7827 30.874 29.6107 30.958C29.4387 31.042 29.2187 31.084 28.9507 31.084ZM28.0867 29.218H29.7247C29.7087 28.994 29.6287 28.82 29.4847 28.696C29.3407 28.568 29.1527 28.504 28.9207 28.504C28.6887 28.504 28.4987 28.568 28.3507 28.696C28.2067 28.82 28.1187 28.994 28.0867 29.218Z" fill="black"/>
</g>
<defs>
<clipPath id="clip0_969203_18">
<rect width="34" height="34" fill="white"/>
</clipPath>
</defs>
</svg>
