<?xml version="1.0" encoding="UTF-8"?>
<svg version="1.1" xmlns="http://www.w3.org/2000/svg" width="650" height="220">
<path d="M0 0 C17.49 0 34.98 0 53 0 C56.33927198 7.34639835 59.51588132 14.62773764 62.42578125 22.13671875 C62.81823532 23.14217239 63.21068939 24.14762604 63.61503601 25.18354797 C64.85039752 28.35042105 66.08152207 31.5189208 67.3125 34.6875 C68.15661961 36.85362532 69.00101819 39.01964195 69.84570312 41.18554688 C71.90035735 46.45578091 73.95154904 51.72735199 76 57 C77.93960537 52.54257955 79.87674641 48.08409413 81.8125 43.625 C82.10290161 42.95626862 82.39330322 42.28753723 82.69250488 41.59854126 C87.42259767 30.70086467 92.08082061 19.77530488 96.65942383 8.81298828 C97.08634521 7.79575684 97.5132666 6.77852539 97.953125 5.73046875 C98.32598633 4.83739014 98.69884766 3.94431152 99.08300781 3.02416992 C100 1 100 1 101 0 C118.16 0 135.32 0 153 0 C153 49.17 153 98.34 153 149 C138.81 149 124.62 149 110 149 C109.67 122.6 109.34 96.2 109 69 C103.58461531 81.75831315 103.58461531 81.75831315 98.17089844 94.51733398 C97.48378357 96.13527922 96.79661271 97.75320068 96.109375 99.37109375 C95.76277832 100.18872192 95.41618164 101.0063501 95.05908203 101.84875488 C94.71441895 102.65977661 94.36975586 103.47079834 94.01464844 104.30639648 C93.72152771 104.99700668 93.42840698 105.68761688 93.12640381 106.39915466 C91.4462363 110.27863004 89.71702414 114.13669569 88 118 C79.75 118 71.5 118 63 118 C61.43628693 114.23666388 59.87345114 110.47297742 58.3125 106.70849609 C57.53212511 104.82743619 56.75046507 102.9469096 55.96875 101.06640625 C51.5523644 90.411876 47.28457781 79.71144453 43 69 C42.67 95.4 42.34 121.8 42 149 C31.77 149 21.54 149 11 149 C9.33009665 133.05482743 8.03104791 117.10037708 6.8359375 101.11328125 C6.68752814 99.14228574 6.53911696 97.17129036 6.39052641 95.2003085 C5.92607266 89.03906109 5.4641462 82.87762796 5.00390625 76.71606445 C4.53141172 70.39102801 4.05460698 64.06632666 3.57573545 57.74177009 C3.111405 51.60705928 2.65083911 45.47207157 2.19176102 39.33696556 C1.99743549 36.74582338 1.80207269 34.15475876 1.60563278 31.56377602 C1.33200882 27.94940705 1.06268129 24.33474212 0.79443359 20.7199707 C0.71341904 19.66166046 0.63240448 18.60335022 0.54893494 17.51296997 C0.47609787 16.5198027 0.4032608 15.52663544 0.32821655 14.50337219 C0.2644451 13.65272344 0.20067364 12.80207468 0.13496971 11.92564869 C-0.04823686 7.95440159 0 3.97547081 0 0 Z " fill="#575656" transform="translate(230,36)"/>
<path d="M0 0 C2.04715416 0.01601804 4.09231122 0.00009562 6.1394043 -0.01904297 C25.28099289 -0.0511879 45.66782693 4.75616448 61.24682617 16.39111328 C62.24682617 19.39111328 62.24682617 19.39111328 61.15454102 21.62426758 C60.59460449 22.47931885 60.03466797 23.33437012 59.45776367 24.21533203 C58.84545898 25.16214844 58.2331543 26.10896484 57.60229492 27.08447266 C56.94874023 28.07253906 56.29518555 29.06060547 55.62182617 30.07861328 C54.35863005 32.01990548 53.09560634 33.96130988 51.83276367 35.90283203 C51.22400391 36.83144043 50.61524414 37.76004883 49.98803711 38.71679688 C47.69095973 42.24486553 45.46315232 45.81187393 43.24682617 49.39111328 C39.53621266 47.97851178 36.07352127 46.29751004 32.55932617 44.45361328 C22.38759392 39.3302592 12.6515108 37.21453731 1.24682617 37.20361328 C0.57393555 37.19136719 -0.09895508 37.17912109 -0.79223633 37.16650391 C-5.52899577 37.15278742 -9.36495882 37.70635216 -13.75317383 39.39111328 C-14.91092443 42.86436509 -14.82184035 45.75178776 -14.75317383 49.39111328 C-7.01081283 53.76533485 0.7895227 56.13185238 9.37182617 58.32861328 C48.87568547 68.80396031 48.87568547 68.80396031 59.48901367 85.32470703 C65.93015833 97.00809717 65.86984914 111.94769167 62.28588867 124.50830078 C58.17900002 135.90260088 51.75902449 143.96121701 41.26635742 149.97314453 C18.06587941 160.868065 -13.29672875 160.83460531 -37.33032227 152.49707031 C-46.55576112 149.15405996 -55.26101588 145.31767795 -63.75317383 140.39111328 C-63.17988176 136.66758953 -62.16890423 134.01546314 -60.20629883 130.80908203 C-59.69067383 129.95894531 -59.17504883 129.10880859 -58.64379883 128.23291016 C-58.10239258 127.35699219 -57.56098633 126.48107422 -57.00317383 125.57861328 C-56.47723633 124.71429688 -55.95129883 123.84998047 -55.40942383 122.95947266 C-52.22990606 117.74553573 -48.99790218 112.56465238 -45.75317383 107.39111328 C-41.67740049 108.01182739 -38.49596071 109.37043129 -34.81567383 111.20361328 C-23.08005598 116.7513599 -11.24310406 119.56025367 1.68432617 119.64111328 C2.50481445 119.66173828 3.32530273 119.68236328 4.1706543 119.70361328 C9.6111717 119.73834923 13.48920993 119.11773669 18.24682617 116.39111328 C19.77728602 112.83219041 19.77728602 112.83219041 20.24682617 109.39111328 C16.55192321 105.19331238 13.66372425 103.48745449 8.30932617 101.95361328 C7.62765381 101.75316406 6.94598145 101.55271484 6.24365234 101.34619141 C1.15860526 99.86994203 -3.96371433 98.52672779 -9.07861328 97.15844727 C-43.62403474 87.89663206 -43.62403474 87.89663206 -53.75317383 74.39111328 C-60.27264199 62.06575058 -61.97150488 48.16485512 -58.19067383 34.64111328 C-53.38276407 20.98798974 -45.321072 12.39524301 -32.37817383 6.07861328 C-21.86922384 1.24005979 -11.46396478 -0.10618564 0 0 Z " fill="#575656" transform="translate(96.753173828125,31.60888671875)"/>
<path d="M0 0 C2.64 0 5.28 0 8 0 C8 2.31 8 4.62 8 7 C9.32 7 10.64 7 12 7 C12.66 4.69 13.32 2.38 14 0 C21.59 0 29.18 0 37 0 C37.495 3.465 37.495 3.465 38 7 C39.32 7 40.64 7 42 7 C42 4.69 42 2.38 42 0 C44.64 0 47.28 0 50 0 C51.3050799 18.98413883 52.60899418 37.96835737 53.91151428 56.952672 C54.51630047 65.76707023 55.12147056 74.58144179 55.72753906 83.39575195 C56.25568096 91.07675661 56.78310798 98.75780996 57.30967045 106.43892306 C57.58860062 110.50738681 57.86789291 114.57582499 58.14804077 118.64420509 C58.41157153 122.47143198 58.67414832 126.2987231 58.93598557 130.12606621 C59.03237969 131.53259329 59.12912583 132.93909629 59.22624588 134.34557343 C59.35856034 136.26248806 59.48949829 138.17949757 59.62036133 140.09651184 C59.69410477 141.17040067 59.76784821 142.24428949 59.84382629 143.35072041 C59.95468366 145.23126837 60 147.11618737 60 149 C57.36 149 54.72 149 52 149 C51.505 146.525 51.505 146.525 51 144 C48.03 143.01 48.03 143.01 45 142 C45 144.31 45 146.62 45 149 C32.13 149 19.26 149 6 149 C6 146.69 6 144.38 6 142 C3.69 142.33 1.38 142.66 -1 143 C-1.33 144.98 -1.66 146.96 -2 149 C-4.64 149 -7.28 149 -10 149 C-6.7 99.83 -3.4 50.66 0 0 Z M38 20 C38.33 26.27 38.66 32.54 39 39 C40.65 38.34 42.3 37.68 44 37 C44.02712153 35.083412 44.04645097 33.1667127 44.0625 31.25 C44.07410156 30.18265625 44.08570313 29.1153125 44.09765625 28.015625 C44.01510087 25.46631499 43.74617558 23.42066409 43 21 C41.35 20.67 39.7 20.34 38 20 Z M7 21 C5.87137825 26.36095333 5.90311779 31.55306686 6 37 C7.98 37.66 9.96 38.32 12 39 C12.33 32.73 12.66 26.46 13 20 C10.84365964 20 9.07553648 20.4465236 7 21 Z M5 51 C3.77482692 56.66642551 3.90771133 62.23708518 4 68 C5.98 68.33 7.96 68.66 10 69 C10.74507544 62.62694402 11.10349817 56.41688675 11 50 C8.97549079 50 6.97599474 50.59466775 5 51 Z M40 51 C39.94602665 53.4377963 39.90634384 55.87439685 39.875 58.3125 C39.85824219 59.00279297 39.84148437 59.69308594 39.82421875 60.40429688 C39.78782206 64.17135396 39.85621136 65.78431704 42 69 C43.32 68.67 44.64 68.34 46 68 C46.02709444 65.91673869 46.04643873 63.83337559 46.0625 61.75 C46.07410156 60.58984375 46.08570313 59.4296875 46.09765625 58.234375 C46.01782092 55.59022872 45.78643778 53.50173909 45 51 C43.35 51 41.7 51 40 51 Z M41 81 C41.33 87.27 41.66 93.54 42 100 C43.98 99.34 45.96 98.68 48 98 C48.02701408 95.89590361 48.04640223 93.79170822 48.0625 91.6875 C48.07410156 90.51574219 48.08570313 89.34398438 48.09765625 88.13671875 C48.14899898 84.96940805 48.14899898 84.96940805 47 82 C44.03 81.505 44.03 81.505 41 81 Z M3 82 C2.14701624 85.67387495 1.89210529 89.0447393 1.9375 92.8125 C1.94652344 93.78832031 1.95554688 94.76414062 1.96484375 95.76953125 C1.97644531 96.50558594 1.98804688 97.24164063 2 98 C3.98 98.33 5.96 98.66 8 99 C9.2039337 95.24600202 9.09877617 91.66782588 9.0625 87.75 C9.05347656 86.48671875 9.04445312 85.2234375 9.03515625 83.921875 C9.02355469 82.95765625 9.01195312 81.9934375 9 81 C6.97549079 81 4.97599474 81.59466775 3 82 Z M1 112 C0.09586327 115.83724172 -0.10576898 119.37502274 -0.0625 123.3125 C-0.05347656 124.38113281 -0.04445312 125.44976562 -0.03515625 126.55078125 C-0.02355469 127.35902344 -0.01195312 128.16726562 0 129 C2.31 129.66 4.62 130.32 7 131 C7.33 124.4 7.66 117.8 8 111 C5.66140564 111 3.29969577 111.60856242 1 112 Z M43 112 C42.97301578 114.43757413 42.95316901 116.87484915 42.9375 119.3125 C42.92912109 120.00279297 42.92074219 120.69308594 42.91210938 121.40429688 C42.89692094 124.5483025 42.99806673 126.99420019 44 130 C45.98 129.67 47.96 129.34 50 129 C50.02699725 126.72923158 50.04639453 124.45837179 50.0625 122.1875 C50.07410156 120.92292969 50.08570313 119.65835938 50.09765625 118.35546875 C50.16159116 115.00394763 50.16159116 115.00394763 49 112 C47.02 112 45.04 112 43 112 Z " fill="#ED7807" transform="translate(173,36)"/>
<path d="M0 0 C4.95315043 0.5105668 9.80284999 0.61112167 14.7734375 0.546875 C15.50897858 0.53891907 16.24451965 0.53096313 17.00234985 0.52276611 C20.06129979 0.48662327 23.11989754 0.44396767 26.1784668 0.38330078 C28.43933553 0.34101491 30.69978224 0.31757027 32.9609375 0.296875 C33.99377113 0.26894363 33.99377113 0.26894363 35.04747009 0.240448 C38.13548714 0.22390759 40.13343498 0.40070967 42.83862305 1.94970703 C44.40234375 3.5546875 44.40234375 3.5546875 44.86328125 5.4921875 C44.82074219 6.513125 44.82074219 6.513125 44.77734375 7.5546875 C44.76445313 8.2353125 44.7515625 8.9159375 44.73828125 9.6171875 C44.40234375 11.5546875 44.40234375 11.5546875 42.40234375 14.5546875 C43.06234375 15.8746875 43.72234375 17.1946875 44.40234375 18.5546875 C44.73234375 12.6146875 45.06234375 6.6746875 45.40234375 0.5546875 C47.71234375 0.5546875 50.02234375 0.5546875 52.40234375 0.5546875 C52.89734375 8.9696875 52.89734375 8.9696875 53.40234375 17.5546875 C55.00624862 12.33515941 55.00624862 12.33515941 56.60327148 7.11352539 C58.29123264 1.66579861 58.29123264 1.66579861 59.40234375 0.5546875 C61.73531808 0.51375813 64.069396 0.51227027 66.40234375 0.5546875 C68.93865004 6.11040603 70.71342826 11.68369556 72.40234375 17.5546875 C72.73234375 11.9446875 73.06234375 6.3346875 73.40234375 0.5546875 C75.71234375 0.5546875 78.02234375 0.5546875 80.40234375 0.5546875 C80.40234375 6.1646875 80.40234375 11.7746875 80.40234375 17.5546875 C83.37234375 17.5546875 86.34234375 17.5546875 89.40234375 17.5546875 C89.40234375 11.9446875 89.40234375 6.3346875 89.40234375 0.5546875 C95.34234375 0.5546875 101.28234375 0.5546875 107.40234375 0.5546875 C107.40234375 2.5346875 107.40234375 4.5146875 107.40234375 6.5546875 C103.77234375 6.5546875 100.14234375 6.5546875 96.40234375 6.5546875 C96.40234375 7.2146875 96.40234375 7.8746875 96.40234375 8.5546875 C99.04234375 8.5546875 101.68234375 8.5546875 104.40234375 8.5546875 C104.40234375 10.5346875 104.40234375 12.5146875 104.40234375 14.5546875 C101.76234375 14.5546875 99.12234375 14.5546875 96.40234375 14.5546875 C96.40234375 15.5446875 96.40234375 16.5346875 96.40234375 17.5546875 C100.03234375 17.5546875 103.66234375 17.5546875 107.40234375 17.5546875 C107.40234375 19.5346875 107.40234375 21.5146875 107.40234375 23.5546875 C93.87234375 23.5546875 80.34234375 23.5546875 66.40234375 23.5546875 C65.90734375 22.5646875 65.90734375 22.5646875 65.40234375 21.5546875 C62.37299884 20.89696322 62.37299884 20.89696322 59.40234375 20.5546875 C59.40234375 21.5446875 59.40234375 22.5346875 59.40234375 23.5546875 C52.47234375 23.5546875 45.54234375 23.5546875 38.40234375 23.5546875 C37.08234375 21.2446875 35.76234375 18.9346875 34.40234375 16.5546875 C34.07234375 18.8646875 33.74234375 21.1746875 33.40234375 23.5546875 C31.09234375 23.5546875 28.78234375 23.5546875 26.40234375 23.5546875 C26.40234375 17.9446875 26.40234375 12.3346875 26.40234375 6.5546875 C24.09234375 6.5546875 21.78234375 6.5546875 19.40234375 6.5546875 C19.40234375 12.1646875 19.40234375 17.7746875 19.40234375 23.5546875 C17.42234375 23.5546875 15.44234375 23.5546875 13.40234375 23.5546875 C13.40234375 17.9446875 13.40234375 12.3346875 13.40234375 6.5546875 C6.96278075 6.42316358 6.96278075 6.42316358 1.40234375 7.5546875 C0.08234375 7.5546875 -1.23765625 7.5546875 -2.59765625 7.5546875 C-2.04335938 7.73644531 -1.4890625 7.91820312 -0.91796875 8.10546875 C-0.19351562 8.35683594 0.5309375 8.60820312 1.27734375 8.8671875 C2.35628906 9.23263672 2.35628906 9.23263672 3.45703125 9.60546875 C5.40234375 10.5546875 5.40234375 10.5546875 7.40234375 13.5546875 C7.85124884 17.07111069 7.84916925 18.86583152 5.90234375 21.8671875 C2.53577366 24.13962231 -0.60325766 24.77701024 -4.59765625 24.5546875 C-7.15255138 23.79447388 -9.2152578 22.79552002 -11.59765625 21.5546875 C-10.93765625 19.5746875 -10.27765625 17.5946875 -9.59765625 15.5546875 C-6.62765625 15.8846875 -3.65765625 16.2146875 -0.59765625 16.5546875 C-1.23574219 16.27753906 -1.87382812 16.00039062 -2.53125 15.71484375 C-3.35753906 15.35261719 -4.18382812 14.99039063 -5.03515625 14.6171875 C-5.85886719 14.25753906 -6.68257813 13.89789063 -7.53125 13.52734375 C-9.59765625 12.5546875 -9.59765625 12.5546875 -10.59765625 11.5546875 C-11.0689045 4.25033967 -11.0689045 4.25033967 -9.28515625 1.6171875 C-6.00392614 -0.4487722 -3.70564445 -0.47189601 0 0 Z M33.40234375 6.5546875 C33.40234375 7.8746875 33.40234375 9.1946875 33.40234375 10.5546875 C34.72234375 10.2246875 36.04234375 9.8946875 37.40234375 9.5546875 C37.40234375 8.5646875 37.40234375 7.5746875 37.40234375 6.5546875 C36.08234375 6.5546875 34.76234375 6.5546875 33.40234375 6.5546875 Z M62.40234375 10.5546875 C62.07234375 11.8746875 61.74234375 13.1946875 61.40234375 14.5546875 C62.06234375 14.5546875 62.72234375 14.5546875 63.40234375 14.5546875 C63.07234375 13.2346875 62.74234375 11.9146875 62.40234375 10.5546875 Z " fill="#575656" transform="translate(480.59765625,128.4453125)"/>
<path d="M0 0 C2.64 0 5.28 0 8 0 C8 2.31 8 4.62 8 7 C10.475 7.495 10.475 7.495 13 8 C13 11.96 13 15.92 13 20 C11.02 20.33 9.04 20.66 7 21 C6.67 26.28 6.34 31.56 6 37 C7.98 37.66 9.96 38.32 12 39 C12.05395478 40.62463842 12.09277195 42.24978541 12.125 43.875 C12.14820313 44.77992187 12.17140625 45.68484375 12.1953125 46.6171875 C12 49 12 49 10 51 C8.35 51 6.7 51 5 51 C4.67 56.61 4.34 62.22 4 68 C5.98 68.33 7.96 68.66 10 69 C10.05391993 70.79133978 10.09275571 72.58313899 10.125 74.375 C10.14820313 75.37273437 10.17140625 76.37046875 10.1953125 77.3984375 C10 80 10 80 8 82 C6.35 82 4.7 82 3 82 C2.67 87.28 2.34 92.56 2 98 C3.98 98.33 5.96 98.66 8 99 C8.02686553 100.97909398 8.04633375 102.95828971 8.0625 104.9375 C8.07410156 106.03964844 8.08570313 107.14179688 8.09765625 108.27734375 C8 111 8 111 7 112 C5.02 112 3.04 112 1 112 C0.67 117.61 0.34 123.22 0 129 C1.98 129.33 3.96 129.66 6 130 C7.57922406 131.57922406 7.207659 133.19443874 7.25 135.375 C7.27578125 136.16648438 7.3015625 136.95796875 7.328125 137.7734375 C7 140 7 140 5.65234375 141.77734375 C3.39389757 143.44848714 1.73755431 143.22196386 -1 143 C-1.33 144.98 -1.66 146.96 -2 149 C-4.64 149 -7.28 149 -10 149 C-6.7 99.83 -3.4 50.66 0 0 Z " fill="#868585" transform="translate(173,36)"/>
<path d="M0 0 C2.64 0 5.28 0 8 0 C9.3050799 18.98413883 10.60899418 37.96835737 11.91151428 56.952672 C12.51630047 65.76707023 13.12147056 74.58144179 13.72753906 83.39575195 C14.25568096 91.07675661 14.78310798 98.75780996 15.30967045 106.43892306 C15.58860062 110.50738681 15.86789291 114.57582499 16.14804077 118.64420509 C16.41157153 122.47143198 16.67414832 126.2987231 16.93598557 130.12606621 C17.03237969 131.53259329 17.12912583 132.93909629 17.22624588 134.34557343 C17.35856034 136.26248806 17.48949829 138.17949757 17.62036133 140.09651184 C17.69410477 141.17040067 17.76784821 142.24428949 17.84382629 143.35072041 C17.95468366 145.23126837 18 147.11618737 18 149 C15.36 149 12.72 149 10 149 C9.67 147.35 9.34 145.7 9 144 C8.030625 143.690625 7.06125 143.38125 6.0625 143.0625 C3 142 3 142 2 141 C1.92773498 139.14712498 1.9161878 137.29166122 1.9375 135.4375 C1.94652344 134.42558594 1.95554688 133.41367188 1.96484375 132.37109375 C1.97644531 131.58863281 1.98804688 130.80617187 2 130 C3.98 129.67 5.96 129.34 8 129 C7.67 123.39 7.34 117.78 7 112 C5.02 112 3.04 112 1 112 C-0.74104353 110.25895647 -0.21311272 107.92635979 -0.25 105.5625 C-0.27578125 104.57378906 -0.3015625 103.58507812 -0.328125 102.56640625 C-0.21984375 101.71949219 -0.1115625 100.87257813 0 100 C3 98 3 98 6 98 C5.67 92.72 5.34 87.44 5 82 C3.02 81.67 1.04 81.34 -1 81 C-2.17881287 77.31620978 -2.21358801 73.84458427 -2 70 C-1.01 69.01 -1.01 69.01 0 68 C1.32 68 2.64 68 4 68 C3.67 62.39 3.34 56.78 3 51 C1.35 51 -0.3 51 -2 51 C-3 50 -3 50 -3.09765625 47.49609375 C-3.08605469 46.48675781 -3.07445312 45.47742188 -3.0625 44.4375 C-3.05347656 43.42558594 -3.04445312 42.41367188 -3.03515625 41.37109375 C-3.02355469 40.58863281 -3.01195312 39.80617187 -3 39 C-1.35 38.34 0.3 37.68 2 37 C1.67 31.72 1.34 26.44 1 21 C-0.65 20.67 -2.3 20.34 -4 20 C-4 15.71 -4 11.42 -4 7 C-2.68 7 -1.36 7 0 7 C0 4.69 0 2.38 0 0 Z " fill="#868585" transform="translate(215,36)"/>
<path d="M0 0 C2.5 1.5625 2.5 1.5625 4 3 C2.63016497 6.16115776 2.0109362 6.9927092 -1 9 C-3.6875 8.125 -3.6875 8.125 -6 7 C-7.60414215 8.18523997 -7.60414215 8.18523997 -9 10 C-9.25069913 12.62570704 -9.25069913 12.62570704 -9 15 C-8.0925 15 -7.185 15 -6.25 15 C1 15 1 15 4 17 C3.6875 18.875 3.6875 18.875 3 21 C-1.23552856 23.82368571 -5.02477314 23.66653757 -10 23 C-12.93423195 21.20353146 -14.47205355 20.0558929 -16 17 C-16.33 18.98 -16.66 20.96 -17 23 C-19.31 23 -21.62 23 -24 23 C-24.495 14.09 -24.495 14.09 -25 5 C-26.93272435 10.54858587 -26.93272435 10.54858587 -28.85913086 16.09936523 C-29.10026611 16.78716064 -29.34140137 17.47495605 -29.58984375 18.18359375 C-29.83597412 18.89056396 -30.08210449 19.59753418 -30.33569336 20.32592773 C-31 22 -31 22 -32 23 C-33.98 23 -35.96 23 -38 23 C-39.98 17.72 -41.96 12.44 -44 7 C-44.99 9.31 -45.98 11.62 -47 14 C-45.79166418 17.25071961 -45.79166418 17.25071961 -44 20 C-44 20.99 -44 21.98 -44 23 C-47.3125 23.3125 -47.3125 23.3125 -51 23 C-53.38164192 20.15739513 -54 18.71594733 -54 15 C-54.66 15 -55.32 15 -56 15 C-56 17.64 -56 20.28 -56 23 C-58.31 23 -60.62 23 -63 23 C-63 15.41 -63 7.82 -63 0 C-60.56625 -0.020625 -58.1325 -0.04125 -55.625 -0.0625 C-54.86010254 -0.071604 -54.09520508 -0.08070801 -53.30712891 -0.09008789 C-48.22222222 -0.11111111 -48.22222222 -0.11111111 -46 1 C-46 0.67 -46 0.34 -46 0 C-43.69 0 -41.38 0 -39 0 C-37.68 3.3 -36.36 6.6 -35 10 C-33.68 6.7 -32.36 3.4 -31 0 C-26.38 0 -21.76 0 -17 0 C-16.505 2.475 -16.505 2.475 -16 5 C-15.236875 4.195625 -14.47375 3.39125 -13.6875 2.5625 C-9.35723463 -1.56635768 -5.5898662 -1.31592424 0 0 Z M-56 6 C-56 7.32 -56 8.64 -56 10 C-54.68 9.67 -53.36 9.34 -52 9 C-52 8.01 -52 7.02 -52 6 C-53.32 6 -54.64 6 -56 6 Z " fill="#F29104" transform="translate(502,95)"/>
<path d="M0 0 C5.78602824 4.90554568 5.78602824 4.90554568 6.203125 8.98828125 C6.30001129 13.7922267 6.32714243 17.22923858 3 21 C-1.07292554 23.84157596 -4.30554251 24.53692863 -9.10546875 23.7109375 C-13.30785604 22.13395918 -15.21196936 18.42596021 -17.3125 14.625 C-17.539375 14.08875 -17.76625 13.5525 -18 13 C-18.2236068 15.9254644 -18.2236068 15.9254644 -17 18 C-16 20 -16 20 -16 23 C-18.31 23 -20.62 23 -23 23 C-24.32 20.69 -25.64 18.38 -27 16 C-27.33 18.31 -27.66 20.62 -28 23 C-30.31 23 -32.62 23 -35 23 C-35 15.41 -35 7.82 -35 0 C-21.66853933 -0.37031835 -21.66853933 -0.37031835 -18.609375 1.32421875 C-17 3 -17 3 -16 6 C-15.443125 5.21625 -14.88625 4.4325 -14.3125 3.625 C-10.01553395 -1.25263714 -6.20994582 -1.66337834 0 0 Z M-28 6 C-28 7.32 -28 8.64 -28 10 C-26.68 9.67 -25.36 9.34 -24 9 C-24 8.01 -24 7.02 -24 6 C-25.32 6 -26.64 6 -28 6 Z M-8 7 C-9.21297649 9.2806707 -9.21297649 9.2806707 -10 12 C-9.23396041 14.2857711 -9.23396041 14.2857711 -8 16 C-5.58354218 16.16687448 -5.58354218 16.16687448 -3 16 C-0.7508092 14.17296773 -0.7508092 14.17296773 -0.75 11.5 C-0.7508092 8.82703227 -0.7508092 8.82703227 -3 7 C-5.58354218 6.83312552 -5.58354218 6.83312552 -8 7 Z " fill="#575656" transform="translate(506,163)"/>
<path d="M0 0 C13.48539786 -0.40864842 13.48539786 -0.40864842 18 3 C18.33 3.66 18.66 4.32 19 5 C19.33 3.35 19.66 1.7 20 0 C22.31 0 24.62 0 27 0 C27.495 8.415 27.495 8.415 28 17 C28.99 16.67 29.98 16.34 31 16 C31.33 10.72 31.66 5.44 32 0 C34.31 0 36.62 0 39 0 C39.10829314 2.89684158 39.18743954 5.78961019 39.25 8.6875 C39.30027344 9.91243164 39.30027344 9.91243164 39.3515625 11.16210938 C39.41765968 15.24360998 39.3317468 17.4430108 37.19921875 21.0234375 C34.17336973 23.74293946 32.02256681 23.92942865 28 24 C24.3611675 23.17299261 23.32442578 22.46985802 21.1875 19.375 C20.795625 18.59125 20.40375 17.8075 20 17 C19.236875 17.804375 18.47375 18.60875 17.6875 19.4375 C12.52018333 24.36447636 6.79393147 23.07305303 0 23 C0 15.41 0 7.82 0 0 Z M7 6 C7 9.63 7 13.26 7 17 C10.9714169 16.37158027 10.9714169 16.37158027 13 14 C12.67673447 10.40320934 12.67673447 10.40320934 12 7 C10.35 6.67 8.7 6.34 7 6 Z " fill="#575656" transform="translate(429,129)"/>
<path d="M0 0 C3.12653087 2.5943554 5.73032052 4.78951244 6.23828125 8.953125 C6.41774475 14.50704803 5.73664814 17.60394337 2 22 C-1.69725375 23.84862688 -5.96461442 23.47587094 -10 23 C-12.93423195 21.20353146 -14.47205355 20.0558929 -16 17 C-16.33 18.98 -16.66 20.96 -17 23 C-19.31 23 -21.62 23 -24 23 C-24 15.41 -24 7.82 -24 0 C-21.69 0 -19.38 0 -17 0 C-16.67 1.98 -16.34 3.96 -16 6 C-15.236875 5.030625 -14.47375 4.06125 -13.6875 3.0625 C-9.99789653 -1.6242936 -5.51913104 -1.60302247 0 0 Z M-6 6 C-7.32 7.32 -8.64 8.64 -10 10 C-9.37466625 12.52363988 -9.37466625 12.52363988 -8 15 C-5.55460214 16.07272562 -5.55460214 16.07272562 -3 16 C-0.79142762 14.17213728 -0.79142762 14.17213728 -0.5625 11.5625 C-0.73583949 8.74700141 -0.73583949 8.74700141 -3.5 7.1875 C-4.325 6.795625 -5.15 6.40375 -6 6 Z " fill="#F29104" transform="translate(531,95)"/>
<path d="M0 0 C2.97 0 5.94 0 9 0 C9.66 1.98 10.32 3.96 11 6 C11.99 4.02 12.98 2.04 14 0 C16.64 0 19.28 0 22 0 C22 7.59 22 15.18 22 23 C20.02 23 18.04 23 16 23 C15.67 20.36 15.34 17.72 15 15 C14.67 15.99 14.34 16.98 14 18 C12.33388095 18.042721 10.66617115 18.04063832 9 18 C8.67 17.67 8.34 17.34 8 17 C7.67 18.98 7.34 20.96 7 23 C4.69 23 2.38 23 0 23 C0 15.41 0 7.82 0 0 Z " fill="#575656" transform="translate(401,163)"/>
<path d="M0 0 C2.31 0 4.62 0 7 0 C9.4375 3 9.4375 3 11 6 C11.33 4.02 11.66 2.04 12 0 C14.31 0 16.62 0 19 0 C19 7.59 19 15.18 19 23 C17.02 23 15.04 23 13 23 C11.3203125 21.25 11.3203125 21.25 10.125 19 C9.71507812 18.2575 9.30515625 17.515 8.8828125 16.75 C8.59148437 16.1725 8.30015625 15.595 8 15 C7.67 17.64 7.34 20.28 7 23 C4.69 23 2.38 23 0 23 C0 15.41 0 7.82 0 0 Z " fill="#575656" transform="translate(409,129)"/>
<path d="M0 0 C7 0 7 0 8.77734375 1.53125 C9.16019531 2.1809375 9.54304688 2.830625 9.9375 3.5 C10.33839844 4.1496875 10.73929687 4.799375 11.15234375 5.46875 C11.43207031 5.9740625 11.71179688 6.479375 12 7 C12.33 4.69 12.66 2.38 13 0 C14.98 0 16.96 0 19 0 C19 7.59 19 15.18 19 23 C17.02 23 15.04 23 13 23 C11.3203125 21.25 11.3203125 21.25 10.125 19 C9.71507812 18.2575 9.30515625 17.515 8.8828125 16.75 C8.59148437 16.1725 8.30015625 15.595 8 15 C7.67 17.64 7.34 20.28 7 23 C4.69 23 2.38 23 0 23 C0 15.41 0 7.82 0 0 Z " fill="#575656" transform="translate(432,163)"/>
<path d="M0 0 C1.17755859 0.13535156 1.17755859 0.13535156 2.37890625 0.2734375 C4.4375 0.625 4.4375 0.625 6.4375 1.625 C5.6875 6.375 5.6875 6.375 3.4375 8.625 C2.4475 8.625 1.4575 8.625 0.4375 8.625 C1.8915625 9.181875 1.8915625 9.181875 3.375 9.75 C6.4375 11.625 6.4375 11.625 7.5 14.5 C7.42598589 18.20070551 6.74679519 19.75828873 4.4375 22.625 C1.40203557 24.54486639 -0.5880294 24.82983886 -4.125 24.375 C-4.88941406 24.28734375 -5.65382813 24.1996875 -6.44140625 24.109375 C-8.5625 23.625 -8.5625 23.625 -11.5625 21.625 C-10.9025 19.645 -10.2425 17.665 -9.5625 15.625 C-5.1075 16.615 -5.1075 16.615 -0.5625 17.625 C-0.5625 16.965 -0.5625 16.305 -0.5625 15.625 C-1.635 15.563125 -2.7075 15.50125 -3.8125 15.4375 C-7.5625 14.625 -7.5625 14.625 -10.0625 12.4375 C-11.5625 9.625 -11.5625 9.625 -11.5 6.5 C-10.55646912 3.60650531 -9.98580523 2.3958769 -7.5625 0.625 C-4.51490395 -0.39086535 -3.11156747 -0.37933442 0 0 Z " fill="#575656" transform="translate(524.5625,162.375)"/>
<path d="M0 0 C2.9375 1 2.9375 1 5 2 C4.67 3.65 4.34 5.3 4 7 C1.10765685 7.82638376 -0.88742431 8 -4 8 C-3.16855469 8.20302734 -3.16855469 8.20302734 -2.3203125 8.41015625 C-0.02858343 9.09115047 1.92757337 9.80194404 4 11 C5.6875 14.375 5.6875 14.375 6 18 C4.74933236 21.51750274 3.64004518 22.64949907 0.375 24.4375 C-4.11181043 25.18530174 -7.67977955 24.24806369 -12 23 C-12.625 21.1875 -12.625 21.1875 -13 19 C-12.01 17.515 -12.01 17.515 -11 16 C-6.545 16.99 -6.545 16.99 -2 18 C-2 17.34 -2 16.68 -2 16 C-3.0725 15.938125 -4.145 15.87625 -5.25 15.8125 C-9 15 -9 15 -11.5 12.8125 C-13 10 -13 10 -12.9375 6.875 C-11.99835204 3.99494626 -11.37365928 2.80398105 -9 1 C-5.96967558 -0.51516221 -3.34885038 -0.17028053 0 0 Z " fill="#F29104" transform="translate(551,94)"/>
<path d="M0 0 C-0.33 1.65 -0.66 3.3 -1 5 C-3.89234315 5.82638376 -5.88742431 6 -9 6 C-8.15115234 6.29003906 -8.15115234 6.29003906 -7.28515625 6.5859375 C-6.55167969 6.84632813 -5.81820312 7.10671875 -5.0625 7.375 C-4.33160156 7.63023437 -3.60070312 7.88546875 -2.84765625 8.1484375 C-1 9 -1 9 0 11 C0.45229682 18.12367491 0.45229682 18.12367491 -1 20.9375 C-4.85609537 22.98605066 -8.90439804 23.61843892 -13.078125 22.38671875 C-14.75386719 21.66805696 -16.38284972 20.84226577 -18 20 C-17.49396008 17.83125748 -17.00016187 16.00032373 -16 14 C-11.545 14.99 -11.545 14.99 -7 16 C-7 15.34 -7 14.68 -7 14 C-8.093125 13.87625 -9.18625 13.7525 -10.3125 13.625 C-14 13 -14 13 -17 11 C-17.81108437 7.63088029 -18.28724338 5.06280049 -17.375 1.6875 C-13.26518074 -3.35636909 -5.4234188 -2.7117094 0 0 Z " fill="#575656" transform="translate(607,130)"/>
<path d="M0 0 C1.17755859 0.13535156 1.17755859 0.13535156 2.37890625 0.2734375 C4.4375 0.625 4.4375 0.625 6.4375 1.625 C6.1075 3.275 5.7775 4.925 5.4375 6.625 C2.54515685 7.45138376 0.55007569 7.625 -2.5625 7.625 C-2.00820313 7.80675781 -1.45390625 7.98851563 -0.8828125 8.17578125 C-0.15835937 8.42714844 0.56609375 8.67851563 1.3125 8.9375 C2.39144531 9.30294922 2.39144531 9.30294922 3.4921875 9.67578125 C5.4375 10.625 5.4375 10.625 7.4375 13.625 C7.25860557 16.96436274 7.05187281 19.60104532 5.3125 22.5 C1.14724613 24.99915232 -2.80000425 24.77257982 -7.4375 23.875 C-8.46875 23.4625 -9.5 23.05 -10.5625 22.625 C-10.8925 21.635 -11.2225 20.645 -11.5625 19.625 C-10.9025 18.305 -10.2425 16.985 -9.5625 15.625 C-6.5925 15.955 -3.6225 16.285 -0.5625 16.625 C-1.20058594 16.34785156 -1.83867187 16.07070312 -2.49609375 15.78515625 C-3.32238281 15.42292969 -4.14867187 15.06070313 -5 14.6875 C-5.82371094 14.32785156 -6.64742188 13.96820313 -7.49609375 13.59765625 C-9.5625 12.625 -9.5625 12.625 -10.5625 11.625 C-11.03374825 4.32065217 -11.03374825 4.32065217 -9.25 1.6875 C-6.02576358 -0.34257478 -3.65832756 -0.44599051 0 0 Z " fill="#F29104" transform="translate(412.5625,94.375)"/>
<path d="M0 0 C5.61 0 11.22 0 17 0 C17 1.98 17 3.96 17 6 C13.37 6 9.74 6 6 6 C6 6.66 6 7.32 6 8 C8.97 8 11.94 8 15 8 C15 9.98 15 11.96 15 14 C12.03 14 9.06 14 6 14 C6 14.99 6 15.98 6 17 C9.63 17 13.26 17 17 17 C17 18.98 17 20.96 17 23 C11.39 23 5.78 23 0 23 C0 15.41 0 7.82 0 0 Z " fill="#575656" transform="translate(453,163)"/>
<path d="M0 0 C5.61 0 11.22 0 17 0 C17 1.98 17 3.96 17 6 C13.37 6 9.74 6 6 6 C6 6.66 6 7.32 6 8 C8.97 8 11.94 8 15 8 C15 9.98 15 11.96 15 14 C12.03 14 9.06 14 6 14 C6 14.99 6 15.98 6 17 C9.63 17 13.26 17 17 17 C17 18.98 17 20.96 17 23 C11.39 23 5.78 23 0 23 C0 15.41 0 7.82 0 0 Z " fill="#F29104" transform="translate(421,95)"/>
<path d="M0 0 C2.31 0 4.62 0 7 0 C7 7.59 7 15.18 7 23 C4.69 23 2.38 23 0 23 C0 15.41 0 7.82 0 0 Z " fill="#575656" transform="translate(424,163)"/>
<path d="M0 0 C2.31 0 4.62 0 7 0 C7 7.59 7 15.18 7 23 C4.69 23 2.38 23 0 23 C0 15.41 0 7.82 0 0 Z " fill="#575656" transform="translate(401,129)"/>
</svg>
